<svg xmlns="http://www.w3.org/2000/svg" xmlns:xlink="http://www.w3.org/1999/xlink" version="1.1" id="Layer_1" x="0px" y="0px" viewBox="163.06 366.14 742.95 294.13" style="enable-background:new 0 0 1080 1080;" xml:space="preserve">
<g>
	<path d="M260.06,446.93c0-13.03,0.61-23.71-0.32-34.26c-0.35-3.93-3.7-10-6.78-10.73c-4.21-1-10.78,0.86-13.96,3.87   c-4.15,3.92-6.91,9.9-8.6,15.46c-2.87,9.4-4,19.29-6.64,28.78c-5.59,20.11,1.18,35.8,18.68,46.45   c30.36,18.48,36.83,45.18,29.96,76.85c-3.35,15.45-6.3,31.14-11.61,45.99c-11.17,31.25-47.22,46.34-79.01,34.15   c-10.81-4.15-17.91-12.35-18.4-23.18c-0.83-18.29,0.11-36.69,1.05-55.01c0.13-2.63,4.23-7.02,6.79-7.24   c9.93-0.85,19.99-0.35,30.22-0.35c-1.19,13.96-2.98,26.27-2.89,38.57c0.03,4.53,4.5,12.82,6.92,12.82   c6.12-0.02,14.76-2.02,17.94-6.32c20.79-28.09,16.16-70.06-11.44-90.45c-31.57-23.32-31.27-53.04-23.13-85.51   c2.29-9.13,4.52-18.35,7.88-27.13c12.29-32.01,47-46.86,79.93-34.73c10.5,3.87,17.32,11.28,18.19,21.72   c1.2,14.37,0.79,28.9,0.19,43.33c-0.1,2.4-4.53,6.36-7.25,6.61C278.71,447.45,269.5,446.93,260.06,446.93z"/>
	<g>
		<path d="M275.58,651.62c48.63-81.99,95.35-160.76,143.94-242.69c31.14,52.44,60.8,102.39,91.92,154.78    c-16.03,0-29.1,0.54-42.06-0.39c-3.17-0.23-6.75-4.81-8.82-8.16c-11.31-18.36-22.18-36.97-33.26-55.45    c-2.13-3.55-4.53-6.96-7.96-12.18c-11.79,19.63-22.63,37.56-33.36,55.55c-19.66,32.95-39.53,65.78-58.68,99    c-4.33,7.51-9.36,10.18-17.83,9.68C299.43,651.16,289.34,651.62,275.58,651.62z"/>
		<path d="M614.21,651.08c-95.83,0-189.16,0-286.41,0c30.66-51.74,60.22-101.63,91.23-153.98c7.78,13.06,14.81,23.35,20,34.46    c1.66,3.55-0.44,9.84-2.72,13.86c-12.31,21.65-25.23,42.98-39.26,66.66c7.03,0.36,11.99,0.83,16.95,0.83    c54.74,0.02,109.47,0.24,164.21-0.29c10.68-0.1,17.39,2.61,21.64,12.42C603.53,633.51,608.75,641.34,614.21,651.08z"/>
		<path d="M520.16,569.37c-19.82-33.39-38.02-64.06-56.22-94.74c-11.44-19.27-22.45-38.81-34.52-57.69    c-5.64-8.82-6.05-16.14,0.03-24.64c5.42-7.58,9.86-15.81,16.22-26.16c48.23,81.18,95.14,160.14,143.33,241.25    c-61.19,0-119.53,0-181.39,0c3.2-6.1,6.63-11.29,8.77-16.94c6.53-17.25,18.33-23.23,37.45-21.51    C474.75,570.83,496,569.37,520.16,569.37z"/>
	</g>
	<g>
		<path d="M713.8,539.14c-7.68-0.66-14.08-1.2-22.45-1.92c1.25-8.27,1.98-15.78,3.76-23.04c0.5-2.06,4.02-4.83,6.22-4.89    c17.08-0.4,34.17-0.22,55.61-0.22c-10.31,40.47-17.88,79.14-30.34,116.25c-9.79,29.15-39.66,40.53-70.43,32.38    c-15.86-4.2-24.29-15.12-24.11-30.01c0.27-22.56,1.3-45.37,5.05-67.58c7.47-44.27,16.85-88.24,25.83-132.26    c1.44-7.03,4.88-13.69,7.5-20.48c12.98-33.63,50.17-39.46,75.86-29.46c7.66,2.98,16.26,12.25,17.71,19.85    c2.83,14.79,1.17,30.44,0.65,45.71c-0.07,2.18-4.07,5.84-6.5,6.04c-9,0.73-18.1,0.29-27.96,0.29c0.71-11.47,2.4-20.88,1.46-30.03    c-0.56-5.44-3.96-13.08-8.36-15.12c-7.85-3.63-16.37,0.29-19.46,8.49c-5.12,13.58-10,27.47-12.71,41.64    c-8.35,43.72-15.74,87.61-23.2,131.49c-1.28,7.55-2.11,15.47-1.13,22.98c0.6,4.62,4.77,12.18,7.81,12.4    c6.11,0.45,14.31-1.54,18.4-5.6c4.86-4.83,7.4-12.65,9.04-19.6C706.45,577.77,709.83,558.87,713.8,539.14z"/>
		<path d="M863.69,622.81c-2.35,11.86-3.7,21.16-6.29,30.13c-0.78,2.69-5,6.28-7.71,6.33c-24.61,0.49-49.23,0.29-76.24,0.29    c3.47-20.42,6.5-39.2,9.86-57.93c11.96-66.57,24.25-133.09,35.96-199.7c3.7-21.06,3.05-21.15,24.86-21.12    c20.19,0.03,40.38,0.01,60.97,0.01c0.46,3.04,1.02,4.67,0.89,6.24c-2.01,23.51-2.04,23.51-26.25,23.48c-7.46-0.01-14.93,0-23.83,0    c-5.24,28.63-10.37,56.65-15.82,86.47c13.3,0.61,24.87,1.15,37.9,1.75c-0.97,7.37-2.02,13.56-2.55,19.8    c-0.64,7.46-4.52,9.81-12.14,10.04c-29.4,0.89-29.33,1.15-34.32,29.54c-3.69,21-7.58,41.98-11.7,64.68    C832.75,622.81,847.05,622.81,863.69,622.81z"/>
	</g>
</g>
</svg>