<svg xmlns="http://www.w3.org/2000/svg" xmlns:xlink="http://www.w3.org/1999/xlink" version="1.1" id="Layer_1" x="0px" y="0px" viewBox="0 0 1080 1080" style="enable-background:new 0 0 1080 1080;" xml:space="preserve">
<style type="text/css">
	.st0{fill:none;stroke:#050505;stroke-width:71;stroke-miterlimit:10;}
	.st1{fill:none;stroke:#000000;stroke-width:71;stroke-miterlimit:10;}
</style>
<g>
	<path class="st1" d="M557.11,821.55c-129.12,0-258.23-0.17-387.34,0.16c-23.64,0.06-45.05-2.52-56.83-24.53   c-11.9-22.23-0.8-39.64,14.43-56.18c53.34-57.92,92.56-122.47,103.91-198.77c4.43-29.74,5.41-60.09,5.52-90.17   c0.56-151.48,85.96-258.4,242.07-303.29c7.23-2.08,13.74-11.72,16.8-19.17c2.86-6.95,0.46-15.68,0.73-23.62   c1.07-31.92,26.65-55.26,60.91-55.73c33.1-0.46,59.61,21.36,62.65,51.99c0.78,7.88,0.87,15.91,0.24,23.81   c-1.12,14.23,4.97,20.41,20.65,24.5C786.54,188.53,879.3,301.1,878.32,441.5c-0.6,84.98,11.23,166.33,62.59,239.08   c15.46,21.9,33.2,42.46,50.47,63.22c13.98,16.8,22.73,34.78,11.24,54.99c-10.89,19.17-31.07,22.9-53,22.86   C818.78,821.43,687.95,821.54,557.11,821.55z"/>
	<path d="M432.65,934c85.09,0,166.61,0,250.6,0c0.56,42.76-21.01,73.97-56.71,95.78c-43.07,26.31-89.71,27.5-134.06,2.16   C454.74,1010.38,431.25,979.59,432.65,934z"/>
</g>
</svg>