<?xml version="1.0" encoding="utf-8"?>
<!-- Generator: Adobe Illustrator 24.2.3, SVG Export Plug-In . SVG Version: 6.00 Build 0)  -->
<svg version="1.1" xmlns="http://www.w3.org/2000/svg" xmlns:xlink="http://www.w3.org/1999/xlink" x="0px" y="0px"
	 viewBox="0 0 2500 2500" style="enable-background:new 0 0 2500 2500;" xml:space="preserve">
<style type="text/css">
	.st0{fill:#FFFFFF;}
</style>
<g id="Background">
	<rect class="st0" width="2500" height="2500"/>
</g>
<g id="Illustration">
	<g id="Coding_workshop_1_">
		<g>
			<g>
				<g>
					<g>
						<path d="M1543.36,1316.75l-350.56,2.2c-2.27,0-3.02,2.11-3.02,4.14v298.26c0,28.56-199.18,102.75-201.12,98.98l-0.24,31.56
							c-0.01,5.88,5.15,11.09,11.74,11.09h4.38c0.03,0,0.06,0,0.09,0h293.92c13.64,0,27.11-3.05,39.46-8.22l161.6-68.05
							c29.09-12.25,47.44-38.56,47.44-67.26v-298.56C1547.06,1318.86,1545.63,1316.75,1543.36,1316.75z"/>
						<g>
							<path class="st0" d="M1154.28,1301.57v298.32c0,29.41-18.93,56.2-48.66,68.9l-109.02,46.53c-7.12,3.04-4.69,12.58,3.2,12.58
								h299.53c13.47,0,26.77-2.66,38.95-7.79l120.79-50.85c29.96-12.61,49.07-39.52,49.07-69.07v-298.62
								c0-1.22-1.11-2.21-2.48-2.21h-348.9C1155.39,1299.36,1154.28,1300.35,1154.28,1301.57z"/>
							<path d="M1299.33,1730.13H999.8c-5.53,0-8.75-3.63-9.48-7.23c-0.82-4.03,1.35-7.9,5.41-9.64l109.02-46.53
								c28.74-12.27,47.31-38.5,47.31-66.84v-298.32c0-2.45,2.11-4.44,4.71-4.44h348.9c2.6,0,4.71,1.99,4.71,4.44v298.62
								c0,30.31-19.8,58.23-50.44,71.13l-120.79,50.85C1326.78,1727.38,1313.01,1730.13,1299.33,1730.13z M1156.51,1301.66v298.24
								c0,30.13-19.63,57.98-50.02,70.95l-109.02,46.53c-2.15,0.92-3.2,2.65-2.79,4.64c0.35,1.69,1.89,3.66,5.11,3.66h299.53
								c13.09,0,26.26-2.63,38.09-7.61l120.78-50.86c28.98-12.2,47.71-38.51,47.71-67.01V1301.6c-0.02,0.04-0.1-0.01-0.25-0.01
								h-348.9C1156.63,1301.59,1156.55,1301.63,1156.51,1301.66z"/>
						</g>
					</g>
					<g>
						<path d="M498.98,1472.54l1511,3.39c13.23,0,26.41-9.94,28.09-23.08l122.77-945.48c2.93-22.91-14.81-45.7-37.6-45.13
							l-1493.47,7.89L498.98,1472.54z"/>
						<g>
							<path class="st0" d="M2063.9,467.61c26,0,49.47,26.35,46.14,52.2l-119.2,930.73c-1.69,13.14-15.76,24.27-28.98,24.27
								l-1484.25-2.41c-15.85,0-26.44-13.16-24.42-28.92l123.45-947.98c1.69-13.14,10.38-27.88,23.6-27.88H2063.9z"/>
							<path d="M1961.86,1477.04l-1484.26-2.41c-8,0-15.17-3.13-20.16-8.81c-5.2-5.91-7.55-14.15-6.46-22.62L574.43,495.2
								c1.86-14.46,11.54-29.82,25.81-29.82H2063.9c13.12,0,26.19,6.31,35.87,17.31c9.59,10.9,14.14,24.54,12.48,37.4l-119.2,930.73
								C1991.25,1464.79,1976.68,1477.04,1961.86,1477.04z M600.24,469.84c-11.72,0-19.77,13.36-21.39,25.93l-123.45,947.99
								c-0.94,7.3,0.97,14.09,5.39,19.1c4.14,4.71,10.11,7.3,16.82,7.3l1484.26,2.41c12.5,0,25.26-10.64,26.76-22.32l119.2-930.73
								c1.49-11.6-2.66-23.95-11.41-33.89c-8.83-10.04-20.68-15.8-32.52-15.8H600.24z"/>
						</g>
						<path d="M1926.96,1434.67l-1402.36-2.22c-7.41,0-14.05-2.9-18.68-8.17c-4.81-5.47-6.99-13.11-5.99-20.95l113.57-872.13
							c1.72-13.37,10.69-27.59,23.92-27.59h1383.42c12.12,0,24.2,5.83,33.14,15.99c8.86,10.07,13.06,22.66,11.53,34.55
							l-109.67,856.25C1954.16,1423.33,1940.67,1434.67,1926.96,1434.67z M637.41,508.08c-10.68,0-18.02,12.21-19.5,23.7
							l-113.57,872.13c-0.86,6.67,0.89,12.86,4.91,17.43c3.77,4.29,9.22,6.66,15.34,6.66l1402.36,2.22
							c11.42,0,23.07-9.71,24.44-20.38l109.67-856.25c1.37-10.62-2.44-21.93-10.45-31.04c-8.09-9.2-18.95-14.47-29.79-14.47H637.41z
							"/>
					</g>
				</g>
			</g>
			<g>
				<g>
					<path d="M1873.38,626.25h-570.05c-0.64,0-1.25-0.28-1.68-0.76c-0.42-0.48-0.62-1.13-0.53-1.77l3.84-28.58
						c0.15-1.11,1.09-1.93,2.21-1.93h570.05c0.64,0,1.25,0.28,1.68,0.76c0.42,0.48,0.62,1.13,0.53,1.77l-3.84,28.58
						C1875.44,625.43,1874.5,626.25,1873.38,626.25z M1305.88,621.79h565.55l3.24-24.12h-565.55L1305.88,621.79z"/>
					<polygon points="1996.39,671.14 1415.59,671.14 1419.43,642.56 2000.23,642.56 					"/>
					<path d="M1920.02,720.49h-300.2c-0.64,0-1.25-0.28-1.68-0.76c-0.42-0.48-0.62-1.13-0.53-1.77l3.84-28.58
						c0.15-1.11,1.09-1.93,2.21-1.93h300.2c0.64,0,1.25,0.28,1.68,0.76c0.42,0.48,0.62,1.13,0.53,1.77l-3.84,28.58
						C1922.09,719.66,1921.14,720.49,1920.02,720.49z M1622.37,716.03h295.7l3.24-24.12h-295.7L1622.37,716.03z"/>
					<path d="M1822.7,1003.2h-570.05c-0.64,0-1.25-0.28-1.68-0.76c-0.42-0.48-0.62-1.13-0.53-1.77l3.84-28.58
						c0.15-1.11,1.09-1.93,2.21-1.93h570.05c0.64,0,1.25,0.28,1.68,0.76c0.42,0.48,0.62,1.13,0.53,1.77l-3.84,28.58
						C1824.76,1002.37,1823.82,1003.2,1822.7,1003.2z M1255.21,998.74h565.54l3.24-24.12h-565.54L1255.21,998.74z"/>
					<path d="M1514.26,1050.31h-149.34c-0.64,0-1.25-0.28-1.68-0.76c-0.42-0.48-0.62-1.13-0.53-1.77l3.84-28.58
						c0.15-1.11,1.09-1.93,2.21-1.93h135.09c1.23,0,2.23,1,2.23,2.23c0,1.23-1,2.23-2.23,2.23h-133.14l-3.24,24.12h146.79
						c1.23,0,2.23,1,2.23,2.23S1515.49,1050.31,1514.26,1050.31z"/>
					<path d="M1945.72,1050.31h-358.73c-1.23,0-2.23-1-2.23-2.23s1-2.23,2.23-2.23h356.78l3.24-24.12h-379.38
						c-1.23,0-2.23-1-2.23-2.23c0-1.23,1-2.23,2.23-2.23h381.94c0.64,0,1.25,0.28,1.68,0.76c0.42,0.48,0.62,1.13,0.53,1.77
						l-3.84,28.58C1947.78,1049.49,1946.83,1050.31,1945.72,1050.31z"/>
					<path d="M1939.38,1097.43h-310.26c-1.23,0-2.23-1-2.23-2.23s1-2.23,2.23-2.23h308.31l3.24-24.12h-328.63
						c-1.23,0-2.23-1-2.23-2.23c0-1.23,1-2.23,2.23-2.23h331.18c0.64,0,1.25,0.28,1.68,0.76c0.42,0.48,0.62,1.13,0.53,1.77
						l-3.84,28.58C1941.44,1096.61,1940.5,1097.43,1939.38,1097.43z"/>
					<path d="M1561.93,1142.59h-211.57c-0.64,0-1.25-0.28-1.68-0.76c-0.42-0.48-0.62-1.13-0.53-1.77l3.84-28.58
						c0.15-1.11,1.09-1.93,2.21-1.93h174.13c1.23,0,2.23,1,2.23,2.23c0,1.23-1,2.23-2.23,2.23h-172.18l-3.24,24.12h209.02
						c1.23,0,2.23,1,2.23,2.23C1564.16,1141.59,1563.16,1142.59,1561.93,1142.59z"/>
					<polygon points="1854.37,765.38 1284.33,765.38 1288.17,736.8 1858.22,736.8 					"/>
					<polygon points="1894.29,812.5 1396.59,812.5 1400.43,783.92 1895.04,783.92 					"/>
					<path d="M1824.65,908.96h-230.17c-0.64,0-1.25-0.28-1.68-0.76c-0.42-0.48-0.62-1.13-0.53-1.77l3.84-28.58
						c0.15-1.11,1.09-1.93,2.21-1.93h230.17c0.64,0,1.25,0.28,1.68,0.76c0.42,0.48,0.62,1.13,0.53,1.77l-3.84,28.58
						C1826.72,908.13,1825.77,908.96,1824.65,908.96z M1597.03,904.5h225.67l3.24-24.12h-225.67L1597.03,904.5z"/>
					<polygon points="1887.14,953.81 1656.97,953.81 1660.81,925.24 1890.98,925.24 					"/>
					<polygon points="1876.06,859.61 1600.82,859.61 1604.66,831.04 1877.2,831.04 					"/>
					<polygon class="st0" points="1797.36,1189.44 1227.32,1189.44 1231.16,1160.86 1801.21,1160.86 					"/>
					<path d="M1640.51,1238.78h-300.93c-0.64,0-1.25-0.28-1.68-0.76c-0.42-0.48-0.62-1.13-0.53-1.77l3.84-28.58
						c0.15-1.11,1.09-1.93,2.21-1.93h286.84c1.23,0,2.23,1,2.23,2.23c0,1.23-1,2.23-2.23,2.23h-284.89l-3.24,24.12h298.38
						c1.23,0,2.23,1,2.23,2.23S1641.74,1238.78,1640.51,1238.78z"/>
					<path d="M1798.81,1285.9h-255c-0.64,0-1.25-0.28-1.68-0.76c-0.42-0.48-0.62-1.13-0.53-1.77l3.84-28.58
						c0.15-1.11,1.09-1.93,2.21-1.93h242.05c1.23,0,2.23,1,2.23,2.23c0,1.23-1,2.23-2.23,2.23h-240.1l-3.24,24.12h252.45
						c1.23,0,2.23,1,2.23,2.23C1801.04,1284.9,1800.04,1285.9,1798.81,1285.9z"/>
					<polygon class="st0" points="1778.36,1330.79 1208.31,1330.79 1212.15,1302.21 1782.2,1302.21 					"/>
					<path d="M1796.53,1380.14h-475.96c-0.64,0-1.25-0.28-1.68-0.76c-0.42-0.48-0.62-1.13-0.53-1.77l3.84-28.58
						c0.15-1.11,1.09-1.93,2.21-1.93h474.4c1.23,0,2.23,1,2.23,2.23c0,1.23-1,2.23-2.23,2.23h-472.44l-3.24,24.12h473.41
						c1.23,0,2.23,1,2.23,2.23C1798.76,1379.14,1797.77,1380.14,1796.53,1380.14z"/>
				</g>
				<g>
					<polygon points="1211.61,953.29 1156.08,953.29 1159.77,925.83 1215.3,925.83 					"/>
					<polygon points="1257.96,624.03 1200.08,624.03 1203.92,595.45 1261.8,595.45 					"/>
					<polygon points="1263.78,580.72 1205.9,580.72 1209.75,552.14 1267.62,552.14 					"/>
					<polygon points="1251.18,671.15 1193.75,671.15 1197.59,642.57 1255.02,642.57 					"/>
					<polygon points="1242.9,718.27 1188.39,718.27 1192.23,689.69 1246.74,689.69 					"/>
					<polygon points="1236.86,765.38 1181.37,765.38 1185.21,736.81 1240.7,736.81 					"/>
					<polygon points="1230.23,812.5 1174.74,812.5 1178.59,783.92 1234.07,783.92 					"/>
					<polygon points="1219.2,904.84 1164.21,904.84 1168.06,876.27 1223.04,876.27 					"/>
					<polygon points="1224.15,857.73 1171.58,857.73 1175.43,829.15 1227.99,829.15 					"/>
					<polygon points="1192.37,1096.41 1136.84,1096.41 1140.53,1068.96 1196.06,1068.96 					"/>
					<polygon points="1199.96,1047.97 1144.97,1047.97 1148.82,1019.39 1203.8,1019.39 					"/>
					<polygon points="1204.91,1000.85 1152.34,1000.85 1156.18,972.27 1208.75,972.27 					"/>
					<polygon points="1154.9,1375.12 1099.37,1375.12 1103.06,1347.67 1158.59,1347.67 					"/>
					<polygon points="1186.19,1140.1 1131.67,1140.1 1135.52,1111.52 1190.03,1111.52 					"/>
					<polygon points="1180.14,1187.22 1124.66,1187.22 1128.5,1158.64 1183.99,1158.64 					"/>
					<polygon points="1173.52,1234.34 1118.03,1234.34 1121.87,1205.76 1177.36,1205.76 					"/>
					<polygon points="1162.49,1326.68 1107.5,1326.68 1111.34,1298.1 1166.33,1298.1 					"/>
					<polygon points="1167.44,1279.56 1114.87,1279.56 1118.71,1250.99 1171.28,1250.99 					"/>
				</g>
				<g>
					<polygon points="963.62,574.46 689.22,574.46 692.91,547 967.31,547 					"/>
					<path d="M1011.84,624.37H722.59c-0.64,0-1.26-0.28-1.68-0.76c-0.42-0.48-0.62-1.13-0.53-1.77l3.84-28.58
						c0.15-1.11,1.09-1.93,2.21-1.93h289.25c0.64,0,1.26,0.28,1.68,0.76c0.42,0.48,0.62,1.13,0.53,1.77l-3.84,28.58
						C1013.9,623.54,1012.96,624.37,1011.84,624.37z M725.14,619.91h284.75l3.24-24.12H728.38L725.14,619.91z"/>
					<path d="M1087.45,671.49H750.46c-0.64,0-1.26-0.28-1.68-0.76c-0.42-0.48-0.62-1.13-0.53-1.77l3.84-28.58
						c0.15-1.11,1.09-1.93,2.21-1.93h336.99c0.64,0,1.26,0.28,1.68,0.76c0.42,0.48,0.62,1.13,0.53,1.77l-3.84,28.58
						C1089.51,670.66,1088.57,671.49,1087.45,671.49z M753.01,667.03h332.49l3.24-24.12H756.25L753.01,667.03z"/>
					<path d="M1130.65,718.6H849.44c-0.64,0-1.26-0.28-1.68-0.76c-0.42-0.48-0.62-1.13-0.53-1.77l3.84-28.58
						c0.15-1.11,1.09-1.93,2.21-1.93h281.22c0.64,0,1.26,0.28,1.68,0.76c0.42,0.48,0.62,1.13,0.53,1.77l-3.84,28.58
						C1132.72,717.78,1131.77,718.6,1130.65,718.6z M851.99,714.14h276.72l3.24-24.12H855.23L851.99,714.14z"/>
					<polygon points="860.8,951.4 638.54,951.4 642.23,923.95 864.49,923.95 					"/>
					<path d="M864.26,1001.31H701.73c-0.64,0-1.26-0.28-1.68-0.76c-0.42-0.48-0.62-1.13-0.53-1.77l3.84-28.58
						c0.15-1.11,1.09-1.93,2.21-1.93h162.53c0.64,0,1.26,0.28,1.68,0.76c0.42,0.48,0.62,1.13,0.53,1.77l-3.84,28.58
						C866.32,1000.48,865.38,1001.31,864.26,1001.31z M704.28,996.85h158.03l3.24-24.12H707.52L704.28,996.85z"/>
					<path d="M922.46,1048.43H766.87c-0.64,0-1.26-0.28-1.68-0.76c-0.42-0.48-0.62-1.13-0.53-1.77l3.84-28.58
						c0.15-1.11,1.09-1.93,2.21-1.93H926.3c0.64,0,1.26,0.28,1.68,0.76c0.42,0.48,0.62,1.13,0.53,1.77l-3.84,28.58
						C924.52,1047.6,923.58,1048.43,922.46,1048.43z M769.42,1043.97h151.09l3.24-24.12H772.66L769.42,1043.97z"/>
					<path d="M1025.47,1095.54H828.58c-0.64,0-1.26-0.28-1.68-0.76c-0.42-0.48-0.62-1.13-0.53-1.77l3.84-28.58
						c0.15-1.11,1.09-1.93,2.21-1.93h196.89c0.64,0,1.26,0.28,1.68,0.76c0.42,0.48,0.62,1.13,0.53,1.77l-3.84,28.58
						C1027.53,1094.72,1026.59,1095.54,1025.47,1095.54z M831.13,1091.08h192.39l3.24-24.12H834.37L831.13,1091.08z"/>
					<polygon points="866.09,763.49 667.36,763.49 671.21,734.91 869.93,734.91 					"/>
					<path d="M1113.06,812.84H806c-0.64,0-1.26-0.28-1.68-0.76c-0.42-0.48-0.62-1.13-0.53-1.77l3.84-28.58
						c0.15-1.11,1.09-1.93,2.21-1.93h307.06c0.64,0,1.26,0.28,1.68,0.76c0.42,0.48,0.62,1.13,0.53,1.77l-3.84,28.58
						C1115.12,812.01,1114.18,812.84,1113.06,812.84z M808.55,808.38h302.56l3.24-24.12H811.79L808.55,808.38z"/>
					<polygon points="855.91,857.65 657.19,857.65 661.03,829.07 859.75,829.07 					"/>
					<path d="M1102.88,907H795.82c-0.64,0-1.26-0.28-1.68-0.76c-0.42-0.48-0.62-1.13-0.53-1.77l3.84-28.58
						c0.15-1.11,1.09-1.93,2.21-1.93h307.06c0.64,0,1.26,0.28,1.68,0.76c0.42,0.48,0.62,1.13,0.53,1.77l-3.84,28.58
						C1104.95,906.17,1104,907,1102.88,907z M798.37,902.54h302.56l3.24-24.12H801.61L798.37,902.54z"/>
					<polygon points="860.29,1139.87 613.2,1139.87 616.89,1112.42 863.98,1112.42 					"/>
					<path d="M1020.25,1189.78H616.76c-0.64,0-1.26-0.28-1.68-0.76c-0.42-0.48-0.62-1.13-0.53-1.77l3.84-28.58
						c0.15-1.11,1.09-1.93,2.21-1.93h403.49c0.64,0,1.26,0.28,1.68,0.76c0.42,0.48,0.62,1.13,0.53,1.77l-3.84,28.58
						C1022.31,1188.95,1021.37,1189.78,1020.25,1189.78z M619.31,1185.32h398.99l3.24-24.12H622.55L619.31,1185.32z"/>
					<path d="M1018.88,1236.9H787.24c-0.64,0-1.26-0.28-1.68-0.76c-0.42-0.48-0.62-1.13-0.53-1.77l3.84-28.58
						c0.15-1.11,1.09-1.93,2.21-1.93h231.65c0.64,0,1.26,0.28,1.68,0.76c0.42,0.48,0.62,1.13,0.53,1.77l-3.84,28.58
						C1020.94,1236.07,1020,1236.9,1018.88,1236.9z M789.79,1232.44h227.15l3.24-24.12H793.03L789.79,1232.44z"/>
					<polygon points="921.73,1328.9 766.82,1328.9 754.29,1300.33 925.57,1300.33 					"/>
					<path d="M1065.2,1280.29H843.01c-0.64,0-1.26-0.28-1.68-0.76c-0.42-0.48-0.62-1.13-0.53-1.77l3.84-28.58
						c0.15-1.11,1.09-1.93,2.21-1.93h222.18c0.64,0,1.26,0.28,1.68,0.76c0.42,0.48,0.62,1.13,0.53,1.77l-3.84,28.58
						C1067.26,1279.46,1066.31,1280.29,1065.2,1280.29z M845.56,1275.83h217.68l3.24-24.12H848.8L845.56,1275.83z"/>
					<path d="M967.53,1378.25h-177.3c-1.23,0-2.23-1-2.23-2.23c0-1.23,1-2.23,2.23-2.23h175.34l3.24-24.12H782
						c-1.23,0-2.23-1-2.23-2.23c0-1.23,1-2.23,2.23-2.23h189.38c0.64,0,1.26,0.28,1.68,0.76c0.42,0.48,0.62,1.13,0.53,1.77
						l-3.84,28.58C969.6,1377.42,968.65,1378.25,967.53,1378.25z"/>
				</g>
			</g>
		</g>
		<g>
			<g>
				<g>
					<g>
						<polygon class="st0" points="2083.5,2004.77 2077.94,2058.15 2042.08,2062.38 2042.08,1999.08 						"/>
						<path d="M2042.08,2064.61c-0.54,0-1.07-0.2-1.48-0.56c-0.48-0.42-0.75-1.03-0.75-1.67v-63.29c0-0.64,0.28-1.26,0.76-1.68
							c0.49-0.42,1.13-0.62,1.77-0.53l41.42,5.68c1.19,0.16,2.04,1.24,1.91,2.44l-5.57,53.38c-0.11,1.04-0.92,1.86-1.96,1.98
							l-35.86,4.23C2042.26,2064.6,2042.17,2064.61,2042.08,2064.61z M2044.31,2001.64v58.23l31.59-3.73l5.16-49.46L2044.31,2001.64
							z"/>
					</g>
					<g>
						<g>
							<path class="st0" d="M2036.43,2155.3c14.95,2.12,39.46,3.98,68.24-0.03c9.41-1.31,15.65-10.52,13.38-19.8
								c-6.33-25.91-17.25-75.08-35.98-97.87l-4.65,12.36l-6.43-11.63c-0.88-1.59-2.46-2.67-4.26-2.9l-14.08-1.8
								c-2.94-0.38-5.67,1.58-6.28,4.5l-2.24,10.72l-8.58-14.05l-3.81,52.49c-0.82,11.25-2.51,22.41-5.05,33.39l-3.84,16.56
								C2021.7,2145.99,2027.75,2154.07,2036.43,2155.3z"/>
							<path d="M2070.33,2159.87c-13.72,0-25.41-1.11-34.21-2.36c-9.84-1.39-16.78-10.62-15.48-20.56l3.88-16.77
								c2.51-10.84,4.19-21.96,5-33.05l3.81-52.49c0.07-0.97,0.76-1.78,1.7-2.01c0.94-0.23,1.92,0.18,2.43,1.01l5.65,9.25l1.09-5.21
								c0.84-4.03,4.69-6.79,8.75-6.26l14.08,1.79c2.49,0.32,4.71,1.83,5.93,4.03l4.09,7.4l2.95-7.83c0.28-0.74,0.94-1.28,1.72-1.41
								c0.79-0.13,1.58,0.17,2.09,0.78c17.78,21.63,28.6,66.4,35.07,93.15l1.36,5.61c1.23,5.04,0.27,10.4-2.65,14.69
								c-2.9,4.28-7.49,7.14-12.6,7.85C2092.51,2159.22,2080.83,2159.87,2070.33,2159.87z M2037.27,2041.9l-3.31,45.55
								c-0.82,11.32-2.54,22.67-5.1,33.73l-3.84,16.56c-0.95,7.32,4.3,14.3,11.72,15.35c15.25,2.16,39.35,3.91,67.62-0.03
								c3.86-0.54,7.32-2.7,9.52-5.94c2.21-3.25,2.94-7.31,2-11.13l-1.36-5.62c-6.07-25.13-16.04-66.37-31.78-88.24l-3.24,8.61
								c-0.3,0.81-1.06,1.38-1.93,1.44c-0.9,0.05-1.69-0.39-2.11-1.15l-6.43-11.63c-0.54-0.97-1.5-1.63-2.59-1.76l-14.08-1.8
								c-1.78-0.23-3.45,0.98-3.82,2.75l-2.24,10.72c-0.19,0.9-0.9,1.59-1.8,1.74c-0.9,0.16-1.81-0.25-2.28-1.04L2037.27,2041.9z"/>
						</g>
						<path d="M2069.22,2144.01c-18.23,0-29.32-3.9-30-4.15c-1.16-0.42-1.75-1.7-1.34-2.85c0.42-1.16,1.69-1.76,2.85-1.34
							c0.24,0.09,23.91,8.35,58.84,0.34c1.2-0.28,2.4,0.47,2.67,1.67s-0.47,2.4-1.68,2.67
							C2088.68,2143.09,2078.1,2144.01,2069.22,2144.01z"/>
						<path d="M2086.53,2103c-0.03,0-0.05,0-0.08,0l-33.61-1.12c-1.23-0.04-2.2-1.07-2.15-2.3c0.04-1.23,1.11-2.22,2.3-2.16
							l33.61,1.12c1.23,0.04,2.2,1.07,2.15,2.3C2088.72,2102.05,2087.73,2103,2086.53,2103z"/>
					</g>
				</g>
				<g>
					<g>
						<polygon class="st0" points="1915.56,1976.34 1910.18,2054.24 1867.04,2054.24 1865.03,1976.34 						"/>
						<path d="M1910.18,2056.47h-43.15c-1.21,0-2.2-0.96-2.23-2.17l-2.01-77.9c-0.02-0.6,0.21-1.18,0.63-1.61
							c0.42-0.43,1-0.67,1.6-0.67h50.53c0.62,0,1.21,0.26,1.63,0.71c0.42,0.45,0.64,1.06,0.59,1.67l-5.37,77.9
							C1912.33,2055.56,1911.36,2056.47,1910.18,2056.47z M1869.21,2052.01h38.89l5.07-73.44h-45.85L1869.21,2052.01z"/>
					</g>
					<g>
						<g>
							<path class="st0" d="M1921.46,2098.22c0.11,7.37-4.89,13.84-12.02,15.51c-24.8,5.81-80.68,18.75-96.62,21.14
								c-20.69,3.1-46.11-3.28-57.04-15.46c-10.93-12.18,24.48-41.26,41.28-51.84c24.96-15.72,48.94-46.78,59-48.18
								c10.06-1.4,28.83,27.97,28.83,27.97l30.68-12.97C1915.56,2034.38,1920.9,2060.84,1921.46,2098.22z"/>
							<path d="M1802,2137.88c-19.02,0-38.62-6.66-47.89-16.98c-2.14-2.39-2.98-5.37-2.49-8.87c2.14-15.32,30.73-37.84,44.24-46.35
								c12.26-7.72,24.16-19.08,34.66-29.11c11.3-10.79,19.47-18.59,25.22-19.39c10.08-1.41,25.11,20,29.98,27.39l28.96-12.24
								c0.62-0.26,1.32-0.23,1.91,0.08c0.59,0.31,1.01,0.87,1.15,1.53c0.05,0.27,5.39,27.1,5.94,64.25
								c0.12,8.37-5.66,15.82-13.75,17.71c-23.74,5.56-80.71,18.76-96.8,21.17C1809.51,2137.61,1805.76,2137.88,1802,2137.88z
								 M1856.81,2021.56c-0.16,0-0.31,0.01-0.46,0.03c-4.33,0.6-13.28,9.15-22.76,18.2c-10.65,10.17-22.72,21.7-35.36,29.66
								c-13.83,8.71-40.4,30.32-42.2,43.19c-0.3,2.16,0.15,3.89,1.4,5.27c10.2,11.36,34.38,17.84,55.05,14.74
								c15.93-2.39,72.75-15.55,96.44-21.1c6.06-1.42,10.4-7.02,10.3-13.31c-0.44-29.99-4.03-53.11-5.36-60.74l-28.12,11.89
								c-1,0.42-2.16,0.06-2.75-0.85C1875.7,2037.15,1862.96,2021.56,1856.81,2021.56z"/>
						</g>
						<path d="M1802.31,2118.78c-13.49,0-25.55-2.21-34.26-7.92c-1.03-0.68-1.32-2.06-0.64-3.09c0.67-1.03,2.06-1.32,3.09-0.64
							c32,20.97,117.28-10.06,134.05-16.49c1.15-0.44,2.44,0.13,2.88,1.28c0.44,1.15-0.13,2.44-1.28,2.88
							C1888.44,2101.59,1839.87,2118.78,1802.31,2118.78z"/>
						<path d="M1850.24,2076.4c-0.56,0-1.13-0.21-1.56-0.64l-17.87-17.5c-0.88-0.86-0.9-2.27-0.03-3.15
							c0.86-0.88,2.28-0.89,3.15-0.03l17.87,17.5c0.88,0.86,0.9,2.27,0.03,3.15C1851.4,2076.17,1850.82,2076.4,1850.24,2076.4z"/>
					</g>
				</g>
				<g>
					<g>
						<path class="st0" d="M2095.74,1468.52c0,0,13.37,243.52,20.37,327.58c7,84.06-16.36,219.19-16.36,219.19l-66.6-3.52
							c0,0-4.56-164.3-9.51-209.92c0,0-28.13-61.85-36.47-117.01c-8.34-55.16-36.74-142.3-36.74-142.3s-23.06,434.9-25.29,469.06
							c0,0-52.22,2.34-70.95-9.52c0,0-33.18-158.58-28.41-244.85c4.76-86.28-0.47-300.64-0.47-300.64L2095.74,1468.52z"/>
						<path d="M2099.75,2017.52c-0.04,0-0.08,0-0.12,0l-66.6-3.52c-1.16-0.06-2.08-1-2.11-2.16c-0.04-1.64-4.59-163.89-9.46-209.39
							c-2.23-4.99-28.52-64.52-36.49-117.27c-6.41-42.45-24.99-104.63-32.96-130.25c-3.77,70.98-22.65,426.27-24.64,456.83
							c-0.07,1.13-0.99,2.03-2.13,2.08c-2.17,0.1-53.14,2.23-72.24-9.86c-0.51-0.32-0.87-0.84-0.99-1.43
							c-0.33-1.59-33.18-159.85-28.46-245.43c4.7-85.2-0.42-298.32-0.47-300.46c-0.02-0.62,0.23-1.21,0.67-1.65
							c0.44-0.43,1.04-0.65,1.66-0.64l270.43,11.93c1.15,0.05,2.07,0.96,2.13,2.11c0.14,2.43,13.45,244.45,20.36,327.52
							c6.94,83.38-16.15,218.4-16.39,219.76C2101.76,2016.75,2100.82,2017.52,2099.75,2017.52z M2035.32,2009.65l62.56,3.31
							c2.81-16.92,22.44-139.33,16.01-216.67c-6.58-79.08-18.96-302-20.26-325.63l-266.03-11.74c0.55,23.79,4.85,217.94,0.41,298.43
							c-4.5,81.55,25.45,230.03,28.18,243.33c16.46,9.57,57.34,9.02,66.86,8.76c2.83-45.99,24.93-462.74,25.16-467.02
							c0.06-1.07,0.87-1.95,1.94-2.09c1.05-0.14,2.08,0.5,2.41,1.52c0.28,0.87,28.55,87.94,36.82,142.65
							c8.19,54.21,36.02,115.81,36.29,116.42c0.1,0.22,0.16,0.45,0.19,0.68C2030.45,1844.03,2034.77,1990.52,2035.32,2009.65z"/>
					</g>
					<path d="M2056.26,1804.06h-20.36c-1.23,0-2.23-1-2.23-2.23s1-2.23,2.23-2.23h20.36c1.23,0,2.23,1,2.23,2.23
						S2057.49,1804.06,2056.26,1804.06z"/>
					<path d="M1890.89,1930.55c-1.21,0-2.21-0.97-2.23-2.19c-0.71-39.03-45.35-112.42-45.8-113.16c-0.64-1.05-0.31-2.42,0.74-3.07
						c1.05-0.64,2.42-0.31,3.06,0.74c1.87,3.05,45.73,75.16,46.46,115.4c0.02,1.23-0.96,2.25-2.19,2.27
						C1890.91,1930.55,1890.9,1930.55,1890.89,1930.55z"/>
				</g>
			</g>
			<g>
				<g>
					<path class="st0" d="M1784.26,1083.29c-3.69-0.29-34.38,52.4-48.82,77.56c-4.1,7.15-13.26,9.48-20.25,5.16l-112.85-69.67
						c-9.21-5.69-17.12-13.3-23.07-22.37c-9.42-14.36-15.03-28.96-27.65-39.16c-10.26-8.3-20.65-17.52-23.76-19.93
						c-1.94-1.51-11,4.93-4.18,16.37c2.09,3.51,9.92,10.64,12.07,13.87c3.42,5.16,3.42,12.03-0.38,16.91
						c-4.05,5.2-7.43,13.54-2.88,25.15c6.72,17.16,21.97,21.41,30.6,22.41c4.34,0.5,8.32,2.6,11.2,5.9l104.14,119.33
						c16.16,18.51,43.17,22.69,64.1,9.91c33.86-20.68,77.45-62.36,108.85-115.04L1784.26,1083.29z"/>
					<path d="M1716.33,1254.36c-14.74,0-29.27-6.23-39.6-18.06l-104.14-119.33c-2.52-2.89-5.99-4.72-9.77-5.15
						c-9.03-1.04-25.25-5.52-32.42-23.81c-5-12.77-1.02-21.91,3.2-27.33c3.15-4.05,3.27-9.8,0.28-14.31
						c-0.89-1.34-3.11-3.69-5.27-5.96c-2.76-2.91-5.61-5.91-6.86-8.01c-4.94-8.28-2.54-14.88,1-18.02c2.26-2,4.86-2.5,6.46-1.26
						c1.34,1.04,3.96,3.28,7.28,6.11c4.46,3.82,10.58,9.04,16.52,13.84c9.24,7.47,14.76,17.06,20.61,27.22
						c2.35,4.08,4.78,8.3,7.5,12.45c5.69,8.67,13.43,16.17,22.38,21.7l112.85,69.67c2.86,1.77,6.23,2.29,9.48,1.46
						c3.26-0.83,5.99-2.9,7.67-5.83c45.38-79.1,48.69-78.83,50.93-78.67c0.39,0.03,0.77,0.17,1.09,0.39l67.1,46.41
						c0.97,0.67,1.25,1.97,0.65,2.98c-33.76,56.64-78.76,96.96-109.61,115.8C1735.16,1251.83,1725.7,1254.36,1716.33,1254.36z
						 M1526.89,1016.96c-0.61,0.23-1.82,1.08-2.65,2.69c-1.03,2.01-1.64,5.45,1.35,10.47c1,1.67,3.79,4.62,6.26,7.22
						c2.39,2.52,4.65,4.9,5.75,6.56c4.04,6.11,3.85,13.95-0.48,19.51c-5.1,6.55-5.97,14.28-2.57,22.96
						c6.32,16.11,20.74,20.08,28.78,21.01c4.89,0.56,9.37,2.93,12.62,6.65l104.14,119.33c15.46,17.72,41.23,21.71,61.25,9.47
						c30.07-18.37,73.81-57.49,107.03-112.49l-64.15-44.37c-3.96,4.06-18,25.71-46.84,75.99c-2.29,3.99-6,6.81-10.44,7.94
						c-4.43,1.13-9.02,0.42-12.92-1.99l-112.85-69.67c-9.5-5.87-17.72-13.84-23.77-23.05c-2.8-4.26-5.26-8.54-7.64-12.68
						c-5.63-9.78-10.95-19.02-19.55-25.97c-5.99-4.84-12.13-10.09-16.61-13.92C1530.65,1020.09,1528.25,1018.05,1526.89,1016.96z"/>
				</g>
				<g>
					<path d="M2171.58,1181.29c0,0,7.51-138.73-97.37-177.7c-81.21-30.18-184.91-17.16-217.41-5.89
						c-80.02,27.76-119.41,133.49-119.41,133.49l93.78,13.22c0,0-28.27,303.78-16.01,371.53c0,0,75.47,8.86,107.48-3.83
						c32.01-12.69,137.26-30.47,187.57-7.2l-9.14-324.92L2171.58,1181.29z"/>
					<path class="st0" d="M1868.42,1521.21c-26.92,0-51.74-2.85-53.51-3.06c-0.98-0.11-1.76-0.85-1.94-1.82
						c-11.77-65.07,13.09-340.72,15.79-370.02l-91.68-12.92c-0.67-0.09-1.26-0.49-1.61-1.07s-0.41-1.29-0.17-1.92
						c0.4-1.07,40.68-107.03,120.77-134.81c35.48-12.3,139.41-23.64,218.92,5.9c43.57,16.19,74.48,52.48,89.38,104.94
						c11.2,39.46,9.45,74.61,9.44,74.97c-0.07,1.18-1.05,2.11-2.23,2.11c-0.01,0-0.03,0-0.04,0l-68.17-1.26l9.08,322.59
						c0.02,0.77-0.36,1.5-1,1.93c-0.64,0.42-1.46,0.49-2.17,0.16c-50.23-23.23-154.33-5.23-185.82,7.25
						C1909.74,1519.62,1888.49,1521.21,1868.42,1521.21z M1817.08,1513.9c11.2,1.19,76.22,7.44,104.75-3.87
						c31.33-12.42,133.6-30.15,186.07-8.58l-9.05-321.41c-0.02-0.61,0.22-1.2,0.64-1.63c0.43-0.43,1.07-0.65,1.63-0.66l68.3,1.26
						c0.34-17.63-0.96-138.03-95.98-173.34c-78.46-29.16-180.94-18-215.9-5.87c-71.18,24.69-110.33,113.23-117.02,129.57
						l90.97,12.82c1.18,0.17,2.02,1.23,1.91,2.42C1833.11,1147.62,1805.73,1444.09,1817.08,1513.9z"/>
				</g>
				<path class="st0" d="M2040.87,1440.17c-0.13,0-0.26-0.01-0.39-0.03c-122.42-21.78-158.23-107.57-158.58-108.43
					c-0.46-1.14,0.09-2.44,1.24-2.9c1.13-0.46,2.44,0.09,2.9,1.23c0.34,0.84,35.34,84.38,155.22,105.7
					c1.21,0.22,2.02,1.37,1.81,2.59C2042.87,1439.41,2041.93,1440.17,2040.87,1440.17z"/>
				<g>
					<polygon class="st0" points="1817.11,1293.03 1970.76,1293.03 1922.63,1120.28 1768.99,1120.28 					"/>
					<path d="M1970.76,1295.26h-153.65c-1,0-1.88-0.67-2.15-1.63l-48.12-172.76c-0.19-0.67-0.05-1.39,0.37-1.95
						c0.42-0.56,1.08-0.88,1.78-0.88h153.65c1,0,1.88,0.67,2.15,1.63l48.12,172.76c0.19,0.67,0.05,1.39-0.37,1.95
						C1972.11,1294.94,1971.45,1295.26,1970.76,1295.26z M1818.8,1290.8h149.02l-46.88-168.3h-149.02L1818.8,1290.8z"/>
				</g>
				<g>
					<path class="st0" d="M2153.37,1181.41l-67.57-3.07c0,0-0.51,57.27-6.6,58.3c-21.72,3.64-67.21,3.83-96.81,0.23
						c-10.31-1.25-18.47-9.19-20.41-19.46c-1.46-7.75-5.64-16.86-16.22-23.42c-10.23-6.34-0.14,13.6-9.71,26.44
						c-5.14,6.9-21.41,3.84-43.59-1.33c-22.19-5.17-27.82,18.69-2.96,33.11c26.96,15.64,44.08,13.88,52.68,15.71
						c17.12,3.65,168.51,27.53,191.88,14.75C2152.12,1272.79,2153.37,1181.41,2153.37,1181.41z"/>
					<path d="M2104.7,1288.66c-54,0-154.41-16.74-162.97-18.56c-1.72-0.37-3.92-0.59-6.46-0.85c-10.06-1.03-25.27-2.58-46.87-15.11
						c-15.65-9.08-19.49-21.53-16.43-29.25c2.26-5.69,8.96-10.77,21.01-7.97c20,4.67,36.92,8.05,41.3,2.17
						c4.27-5.74,4.21-13.31,4.16-18.84c-0.04-4.56-0.07-7.86,2.38-9.24c2.06-1.16,4.48,0.06,6.12,1.07
						c9.29,5.75,15.25,14.36,17.24,24.9c1.78,9.44,9.21,16.53,18.49,17.66c29.17,3.54,73.81,3.46,95.84-0.16
						c2.86-3.49,4.85-31.63,5.07-56.17c0.01-0.61,0.26-1.18,0.7-1.6c0.44-0.42,1.03-0.64,1.63-0.61l67.57,3.07
						c1.2,0.05,2.15,1.05,2.13,2.26c-0.13,9.49-1.81,92.97-20.46,103.18C2129.87,1287.51,2118.88,1288.66,2104.7,1288.66z
						 M1886.64,1220.61c-5.16,0-9.01,2.09-10.53,5.92c-2.38,6,1.15,15.99,14.52,23.75c20.78,12.05,35.41,13.55,45.09,14.53
						c2.67,0.27,4.98,0.51,6.93,0.92c17.45,3.72,167.92,27.24,190.35,14.97c13.49-7.38,17.57-70.65,18.11-97.16l-63.1-2.87
						c-0.08,4.65-0.31,15.63-0.99,26.57c-1.74,28.29-4.63,31.12-7.45,31.59c-22.25,3.73-67.78,3.85-97.44,0.24
						c-11.21-1.36-20.19-9.91-22.33-21.26c-1.78-9.41-6.89-16.79-15.2-21.94c-0.72-0.44-1.2-0.66-1.5-0.77
						c-0.24,1.03-0.22,3.35-0.2,5.11c0.05,5.81,0.12,14.6-5.05,21.54c-6.01,8.07-22.81,4.89-45.89-0.49
						C1890.07,1220.83,1888.29,1220.61,1886.64,1220.61z"/>
				</g>
			</g>
			<g>
				<g>
					<g>
						<path class="st0" d="M1920.7,1000.18c0,0,17.5-10.76,17.32-17.06l4.99-32.31c0.05-2.96-1.77-5.61-4.53-6.58l-20.69-7.1
							c-2.64-0.93-4.34-3.53-4.16-6.36l1.61-25.68l-8.11-7.18c-0.64-0.56-0.71-1.53-0.17-2.19l12.81-15.61
							c4.19-5.9,8.39-20.01,11.82-19.04c0,0,72.99-8.43,76.54,28.37c0.52,5.33-1.09,10.65-4.18,15l-6.46,9.11
							c-6.49,9.15-9.91,20.37-8.76,31.58c0.24,2.33,3.27,17.33,5.3,27.25c1.15,5.63,4.28,10.64,8.81,14.13
							c5.7,4.39,12.64,9.98,11.51,10.35c0,0-8.08,5.94-20.84,11.2c-22.66,9.34-48.43,7.02-69.37-5.76L1920.7,1000.18z"/>
						<path d="M1964.75,1015.95c-14.48,0-28.98-3.96-41.73-11.75l-3.47-2.12c-0.66-0.4-1.07-1.12-1.07-1.9c0-0.78,0.4-1.5,1.06-1.9
							c7.89-4.86,16.35-12.01,16.26-15.1c0-0.13,0.01-0.27,0.03-0.4l4.97-32.14c-0.02-1.95-1.23-3.67-3.04-4.31l-20.67-7.1
							c-3.58-1.26-5.9-4.8-5.66-8.61l1.54-24.59l-7.29-6.46c-1.54-1.37-1.73-3.68-0.42-5.28l12.81-15.61
							c1.37-1.94,2.93-5.28,4.43-8.5c3.08-6.62,5.56-11.9,9.22-11.39c4.72-0.51,48.13-4.67,68.44,11.74
							c6.06,4.9,9.5,11.18,10.23,18.67c0.55,5.71-1.07,11.57-4.58,16.51l-6.46,9.11c-6.45,9.09-9.42,19.77-8.36,30.06
							c0.1,0.97,0.92,5.77,5.27,27.03c1.04,5.1,3.88,9.65,7.99,12.81c12.89,9.93,12.73,10.85,12.47,12.37
							c-0.1,0.59-0.49,1.16-1,1.53c-0.34,0.25-8.45,6.16-21.31,11.47C1984.92,1014.02,1974.84,1015.95,1964.75,1015.95z
							 M1924.9,1000.12l0.44,0.27c20.44,12.47,45.62,14.57,67.36,5.6c8.94-3.69,15.59-7.75,18.59-9.72
							c-1.32-1.24-4.07-3.6-9.77-7.99c-4.96-3.82-8.38-9.31-9.64-15.45c-3.35-16.35-5.14-25.59-5.34-27.47
							c-1.17-11.37,2.08-23.13,9.16-33.1l6.46-9.11c2.88-4.07,4.22-8.86,3.77-13.5c-0.61-6.34-3.42-11.45-8.59-15.63
							c-19.59-15.84-65.03-10.79-65.48-10.74c-0.15,0.02-0.3,0.02-0.45,0.01c-1.23,0.93-3.5,5.82-4.89,8.79
							c-1.58,3.4-3.22,6.92-4.93,9.32l-12.51,15.25l7.64,6.77c0.51,0.46,0.79,1.12,0.75,1.81l-1.61,25.68
							c-0.12,1.83,0.98,3.52,2.67,4.12l20.67,7.1c3.68,1.3,6.09,4.81,6.03,8.73c0,0.1-0.01,0.2-0.03,0.3l-4.97,32.14
							C1940.15,989.06,1930.35,996.45,1924.9,1000.12z"/>
					</g>
					<path d="M1929.18,805.05c16.63-0.85-4.4,16.28,57.21-1.42c24.54-7.05,11.93,21.73,18.3,19.92c23.52-6.69,22.72-6.49,34.15-3.37
						c7.57,2.07,12.4,16.23,10.89,26.78c-1.99,13.92-17.61,36.02-31.59,59.39c-7.24,12.1-20.06,13.19-35.57-4.81
						c-1.65-1.92,6.79-13.2,2.38-18.07c-11.44-12.65-16.53,6.46-25.77,0.56c-8.87-5.66-12.53-9.33-21.91-17.89
						c-11.34-10.36-30.39,5.77-36.96-17.56C1896.9,836.4,1906.41,806.22,1929.18,805.05z"/>
				</g>
			</g>
		</g>
		<g>
			<g>
				<g>
					<g>
						<g>
							<path class="st0" d="M1384.75,2079.83c0,0,5.09,0.02,9.97-3.44c15.09-10.7,46.46-34.6,67.89-31.61
								c35.89,5,40.14,34.31,40.14,34.31s30.27-1.12,29.67,19.02c-0.46,15.46-9.27,35.1-33.74,45.91
								c-33.36,14.73-66.8,25.96-103.72,1.78c-7.17-4.69-15.67-6.88-24.19-6.03c-20.74,2.09-329.82,8.75-329.82,8.75
								c-70.7,0-135.57-39.23-168.4-101.85l-65.15-124.26l74.64-208.55l117.04,271.9
								C1055.79,2063.14,1378.84,2081.17,1384.75,2079.83z"/>
							<path d="M1440.03,2162.03c-14.95,0-30.37-3.94-46.29-14.37c-6.79-4.45-14.87-6.46-22.74-5.67
								c-20.59,2.07-317.37,8.48-330,8.76c-71.81,0-137.1-39.48-170.42-103.05l-65.15-124.26c-0.29-0.55-0.33-1.2-0.12-1.79
								l74.64-208.55c0.31-0.86,1.11-1.45,2.03-1.48c0.91-0.05,1.76,0.51,2.12,1.35l116.94,271.66
								c54.96,74.27,370.83,94.56,383.32,93.01c0.16-0.04,0.22-0.04,0.39-0.04c0.13,0,4.53-0.09,8.68-3.03l3.5-2.5
								c16.91-12.11,45.21-32.4,65.99-29.5c31.69,4.41,39.88,27.44,41.63,34.28c4.85,0.09,17.84,1.02,25.08,8.22
								c3.49,3.47,5.18,7.87,5.03,13.1c-0.23,7.7-3.44,33.92-35.07,47.89C1480.57,2154.45,1460.74,2162.03,1440.03,2162.03z
								 M1374.37,2137.35c7.64,0,15.26,2.28,21.82,6.57c36.14,23.68,68.68,12.59,101.59-1.95c29.24-12.91,32.2-36.9,32.41-43.94
								c0.12-4-1.09-7.2-3.7-9.8c-7.46-7.41-23.49-6.93-23.66-6.92c-0.03,0-0.05,0-0.08,0c-1.1,0-2.05-0.81-2.21-1.91
								c-0.17-1.13-4.53-27.72-38.24-32.42c-19-2.64-47.48,17.75-62.78,28.71l-3.52,2.51c-5.41,3.83-11.1,3.8-11.27,3.85
								c-7.74,0.43-88.45-3.99-174.12-17.54c-80.8-12.78-183.4-36.6-213.33-77.46c-0.1-0.14-0.18-0.28-0.25-0.44l-114.8-266.69
								l-72.4,202.3l64.69,123.4c32.55,62.09,96.32,100.66,166.42,100.66c3.04-0.07,309.18-6.68,329.6-8.73
								C1371.82,2137.41,1373.09,2137.35,1374.37,2137.35z"/>
						</g>
						<g>
							<g>
								<path class="st0" d="M1303.54,2023.93l29.89-52.32l24.54,15.92c1.35,0.88,2.48,2.07,3.29,3.46l1.47,2.53
									c1.85,3.18,5.27,5.14,8.9,5.09c1.97-0.02,3.92,0.54,5.6,1.63l182.47,118.18c1.5,0.97,2.88,2.14,4.08,3.48l36.88,40.88
									l-51.33-11.6c-2.79-0.63-5.5-1.63-8.06-2.96l-192.03-100.39c-1.64-0.86-3.02-2.15-3.99-3.72l-0.24-0.4
									c-1.86-3.03-5.17-4.89-8.68-4.87l-1.77,0.01c-1.63,0.01-3.24-0.39-4.7-1.15L1303.54,2023.93z"/>
								<path d="M1600.65,2165c-0.16,0-0.33-0.02-0.49-0.05l-51.33-11.6c-2.98-0.67-5.87-1.74-8.6-3.16L1348.2,2049.8
									c-2-1.04-3.68-2.61-4.86-4.53l-0.24-0.39c-1.45-2.36-4.03-3.81-6.75-3.81c-0.01,0-0.02,0-0.03,0l-1.78,0.01
									c-0.02,0-0.03,0-0.05,0c-1.96,0-3.93-0.49-5.69-1.4l-26.31-13.75c-0.54-0.28-0.94-0.77-1.11-1.35
									c-0.17-0.58-0.1-1.21,0.2-1.73l29.89-52.32c0.3-0.53,0.81-0.92,1.41-1.06c0.6-0.14,1.23-0.04,1.74,0.3l24.54,15.92
									c1.64,1.06,3.03,2.52,4.01,4.21l1.47,2.53c1.43,2.47,4.05,3.99,6.85,3.99c0.08,0,0.16,0,0.25,0c2.36,0,4.67,0.69,6.68,1.99
									l182.47,118.18c1.67,1.08,3.19,2.38,4.52,3.85l36.88,40.88c0.65,0.72,0.76,1.78,0.27,2.62
									C1602.17,2164.59,1601.43,2165,1600.65,2165z M1336.36,2036.6c4.26,0,8.3,2.27,10.55,5.94l0.24,0.39
									c0.76,1.24,1.84,2.25,3.13,2.92l192.03,100.39c2.38,1.24,4.91,2.17,7.52,2.76l44.47,10.05l-32.17-35.66
									c-1.07-1.19-2.29-2.23-3.64-3.1l-182.47-118.18c-1.31-0.85-2.8-1.34-4.36-1.27c-0.05,0-0.1,0-0.15,0
									c-4.39,0-8.49-2.37-10.71-6.21l-1.47-2.52c-0.63-1.09-1.52-2.03-2.58-2.71l-22.56-14.64l-27.57,48.26l24.26,12.68
									c1.13,0.59,2.36,0.88,3.65,0.9l1.78-0.01C1336.32,2036.6,1336.34,2036.6,1336.36,2036.6z"/>
							</g>
							<path d="M1550.47,2143.75c-0.34,0-0.69-0.08-1.02-0.25c-1.09-0.57-1.52-1.91-0.96-3.01l10.96-21.23
								c0.57-1.09,1.91-1.52,3.01-0.96c1.09,0.57,1.52,1.91,0.96,3.01l-10.96,21.23C1552.06,2143.3,1551.28,2143.75,1550.47,2143.75
								z"/>
							<g>
								<path d="M1290.93,1945.7l43.48,26.28l-30.68,52.24l-43.48-26.28c-7.97-4.81-10.7-15.06-6.1-22.89l14.03-23.89
									C1272.77,1943.33,1282.96,1940.89,1290.93,1945.7z"/>
								<path d="M1303.73,2026.45c-0.4,0-0.8-0.11-1.15-0.32l-43.49-26.28c-8.99-5.44-12.07-17.07-6.87-25.93l14.03-23.89
									c2.49-4.24,6.5-7.24,11.28-8.45c4.94-1.25,10.11-0.46,14.54,2.22l43.48,26.28c1.04,0.63,1.39,1.99,0.77,3.04l-30.68,52.24
									c-0.3,0.51-0.8,0.89-1.38,1.03C1304.1,2026.43,1303.91,2026.45,1303.73,2026.45z M1282.17,1945.46
									c-1.18,0-2.37,0.15-3.53,0.44c-3.62,0.92-6.65,3.19-8.53,6.39l-14.03,23.89c-3.97,6.77-1.58,15.68,5.33,19.85l41.55,25.11
									l28.42-48.39l-41.6-25.14C1287.42,1946.19,1284.8,1945.46,1282.17,1945.46z"/>
							</g>
							<path d="M1346.55,2033.6c-0.39,0-0.79-0.1-1.15-0.32c-1.06-0.63-1.4-2.01-0.76-3.06l14.8-24.57c0.63-1.06,2.01-1.4,3.06-0.76
								c1.06,0.63,1.4,2.01,0.76,3.06l-14.8,24.57C1348.05,2033.21,1347.31,2033.6,1346.55,2033.6z"/>
							<path d="M1433.88,2054.38c-0.41,0-0.81-0.11-1.18-0.34l-54.45-34.18c-1.04-0.66-1.36-2.03-0.7-3.08
								c0.66-1.04,2.03-1.36,3.07-0.7l54.45,34.18c1.04,0.66,1.36,2.03,0.7,3.08C1435.35,2054.01,1434.62,2054.38,1433.88,2054.38z"
								/>
							<path d="M1547.39,2124.79c-0.4,0-0.81-0.11-1.18-0.34l-21.27-13.24c-1.05-0.65-1.37-2.03-0.71-3.07
								c0.65-1.05,2.03-1.36,3.07-0.71l21.27,13.24c1.05,0.65,1.37,2.03,0.71,3.07C1548.86,2124.41,1548.14,2124.79,1547.39,2124.79
								z"/>
							<path class="st0" d="M1298.88,2005.46c-0.4,0-0.8-0.11-1.17-0.33l-33.14-20.35c-1.05-0.64-1.38-2.02-0.73-3.07
								c0.65-1.05,2.02-1.38,3.07-0.73l33.14,20.35c1.05,0.64,1.38,2.02,0.73,3.07C1300.36,2005.08,1299.63,2005.46,1298.88,2005.46
								z"/>
						</g>
						<path class="st0" d="M1384.75,2079.83c0,0,44.54-5.55,72.9-1.61c22.09,3.06,87.47-12.64,73.81,29.66
							c-2.94,9.11-4.49,15.18-12.59,23.77c-4.43,4.7-16.55,14.38-23.41,17.42c-33.4,14.75-63.66,20.93-100.61-3.34
							c-7.12-4.67-15.6-6.81-24.07-5.96C1365.85,2140.26,1383.18,2080.18,1384.75,2079.83z"/>
						<path d="M1444.62,2164.23c-16.34,0-32.93-4.79-50.99-16.65c-6.71-4.4-14.72-6.39-22.62-5.6c-5.44,0.55-22.87,1.15-23.61,1.18
							c-1.23,0.06-2.26-0.92-2.3-2.15c-0.04-1.23,0.92-2.26,2.15-2.31c0.18-0.01,18.02-0.63,23.31-1.16
							c8.9-0.89,17.96,1.35,25.52,6.31c35.38,23.23,63.91,18.44,98.49,3.17c6.39-2.82,18.3-12.25,22.69-16.9
							c7.2-7.64,8.91-13,11.5-21.11l0.58-1.81c2.53-7.84,2.31-13.6-0.68-17.59c-6.63-8.85-26.36-8.29-43.78-7.81
							c-10.95,0.31-21.29,0.6-27.89-1.45c-33.65-10.45-71.17,1.48-71.55,1.61c-1.86,0.43-6.7,0.28-18.07-0.49
							c-1.23-0.08-2.16-1.15-2.07-2.38c0.08-1.23,1.12-2.16,2.38-2.07c9.88,0.67,15.46,0.89,16.59,0.64
							c1.39-0.46,39.03-12.45,74.06-1.57c5.89,1.83,15.88,1.55,26.44,1.25c18.5-0.52,39.45-1.11,47.47,9.59
							c3.87,5.16,4.33,12.44,1.35,21.64l-0.58,1.8c-2.68,8.38-4.62,14.43-12.51,22.81c-4.61,4.9-17.05,14.8-24.13,17.93
							C1478.5,2158.99,1461.7,2164.23,1444.62,2164.23z"/>
					</g>
					<g>
						<path class="st0" d="M699.88,1567.72c0,0,137.16,18.17,182.72,73.68c57.69,70.3,82.56,174.75,90.64,219.9
							c2.37,13.26,2.09,26.85-0.84,40l-3.36,15.08c-11.85,53.22-60.39,90.12-114.84,87.28l2.73,0.01
							c-8.8-0.46-21.64-3.37-25.37-11.35l-14.41-26.29l-1.36,9.48c-10.83,69.95,45.71,165.78,45.71,165.78l-162.23-21.89
							c-83.35-8.37-162.67-41.21-226.3-95.69c-34.55-29.58-61.26-57.26-72.79-90.87c-19.57-57.08-17.78-73.34-23.27-142.59
							c-3.74-47.15,10.1-94.25,39.67-131.17C460.05,1604.82,543.71,1547.91,699.88,1567.72z"/>
						<path d="M861.5,2143.51c-0.1,0-0.2-0.01-0.3-0.02l-162.23-21.89c-85.26-8.56-163.94-41.83-227.45-96.21
							c-30.85-26.41-61.1-55.82-73.45-91.84c-16.54-48.24-17.9-67.39-21.2-113.66c-0.62-8.73-1.31-18.43-2.19-29.47
							c-3.84-48.48,10.42-95.62,40.16-132.74c42.59-53.16,126.65-112.3,285.31-92.17c0,0,0.01,0,0.01,0
							c5.64,0.75,138.56,18.93,184.15,74.48c61.2,74.57,85.21,187.95,91.12,220.92c2.44,13.62,2.15,27.38-0.85,40.88l-3.36,15.08
							c-12.13,54.49-61.35,91.93-117.14,89.02c-0.37-0.02-0.72-0.13-1.02-0.31c-9.67-1.14-20.02-4.83-23.52-12.32l-11.13-20.3
							l-0.41,2.85c-10.59,68.4,44.86,163.38,45.42,164.33c0.43,0.74,0.41,1.66-0.06,2.37
							C862.94,2143.14,862.24,2143.51,861.5,2143.51z M639.09,1565.94c-118.1,0-184.64,49.44-220.76,94.52
							c-29.02,36.23-42.94,82.25-39.19,129.59c0.88,11.06,1.57,20.77,2.19,29.51c3.26,45.86,4.62,64.84,20.97,112.53
							c12,35.01,41.76,63.9,72.13,89.9c62.81,53.78,140.64,86.69,225.07,95.17l157.84,21.29c-10.61-19-53.45-100.58-43.73-163.31
							l1.35-9.45c0.14-0.95,0.86-1.71,1.81-1.88c0.94-0.16,1.89,0.28,2.35,1.12l14.41,26.29c3.19,6.82,14.66,9.74,23.53,10.2
							c0.21,0.01,0.41,0.05,0.6,0.12c52.14,1.19,97.81-34.39,109.22-85.66l3.36-15.08c2.88-12.92,3.15-26.09,0.82-39.12
							c-5.85-32.7-29.65-145.14-90.17-218.88c-44.48-54.2-179.92-72.7-181.29-72.89C678.06,1567.2,657.92,1565.94,639.09,1565.94z"
							/>
					</g>
					<path d="M826.46,1992.94c-0.83,0-1.63-0.47-2.01-1.27L786.03,1911c-0.53-1.11-0.06-2.44,1.06-2.97
						c1.11-0.53,2.44-0.06,2.97,1.06l38.42,80.68c0.53,1.11,0.06,2.44-1.06,2.97C827.11,1992.87,826.79,1992.94,826.46,1992.94z"/>
				</g>
				<g>
					<path d="M721.38,1293l10.07-6.71c8.08-5.39,11.49-15.62,8.12-24.73c-10.12-27.34-47.01-74.98-181.21-38.8
						c-136.84,36.9-112.64,256.46,3.93,303.38s156.16-194.28,156.16-194.28L721.38,1293z"/>
					<g>
						<path class="st0" d="M704.56,1298.03c1.56-8.37,12.71-10.22,16.93-2.82c10.24,17.97,15.12,30.48,16.76,38.11
							c2.2,10.26-7.33,20.53-2.2,31.53c5.13,11,13.2,23.46,13.93,43.26c0.72,19.34,20.33,107.99-48.54,105.19
							c-2.7-0.11-4.97,2.02-4.93,4.73c0.17,13.49,0.89,50.61,3.89,70.7c1.63,10.95-5.19,21.36-15.84,24.37
							c-27.57,7.79-78.9,18.75-117.32,6.26c-9.99-3.25-15.23-14.19-11.67-24.07c4.54-12.61,10.89-48.05,6.73-69.13
							c0,0,23-2.27,48.62-14.02c39.37-18.06,58.74-62.04,47.86-103.97c-2.34-9.02-7.4-21.84-2.13-35.42
							c13.6-35.03,33.95,0.18,33.95,0.18L704.56,1298.03z"/>
						<path d="M607.74,1627.22c-14.25,0-28.42-1.6-41.21-5.76c-5.36-1.74-9.69-5.51-12.18-10.6c-2.52-5.15-2.84-10.96-0.9-16.35
							c4.39-12.2,10.72-47.24,6.64-67.94c-0.12-0.62,0.02-1.26,0.4-1.76c0.37-0.5,0.95-0.83,1.57-0.89
							c0.23-0.02,22.96-2.38,47.91-13.82c37.77-17.33,57.38-59.97,46.64-101.39c-0.31-1.2-0.67-2.47-1.05-3.8
							c-2.46-8.67-5.83-20.54-1-32.98c4.17-10.73,9.54-16.42,15.97-16.91c7.87-0.61,14.97,6.96,18.86,12.14l12.97-69.54
							c0.88-4.74,4.52-8.31,9.27-9.11c4.75-0.8,9.39,1.4,11.79,5.6c11.52,20.22,15.6,32.23,17,38.75c1.09,5.07-0.33,9.98-1.71,14.73
							c-1.63,5.62-3.17,10.93-0.65,16.32c0.85,1.82,1.78,3.67,2.74,5.6c4.8,9.6,10.77,21.54,11.4,38.52
							c0.09,2.35,0.48,5.94,0.94,10.09c2.41,21.84,6.89,62.5-13.05,83.87c-9.02,9.66-22.07,14.23-38.75,13.54
							c-0.73-0.03-1.38,0.22-1.88,0.71c-0.48,0.47-0.74,1.09-0.73,1.76c0.18,14.6,0.92,50.68,3.86,70.4
							c1.79,11.99-5.71,23.53-17.44,26.84C666.63,1620.46,637.02,1627.22,607.74,1627.22z M564.89,1528.06
							c3.43,21.93-2.74,55.46-7.24,67.96c-1.53,4.25-1.28,8.82,0.7,12.88c1.96,4,5.35,6.95,9.55,8.32
							c37.93,12.33,88.97,1.36,116.02-6.28c9.58-2.71,15.7-12.12,14.24-21.89c-2.98-19.99-3.73-56.31-3.91-71
							c-0.02-1.9,0.72-3.69,2.08-5.01s3.24-2.04,5.17-1.97c15.35,0.62,27.21-3.46,35.3-12.13c18.54-19.87,14.21-59.21,11.88-80.34
							c-0.49-4.41-0.87-7.9-0.96-10.41c-0.59-16.01-6.09-27-10.93-36.69c-0.98-1.96-1.93-3.85-2.79-5.7
							c-3.22-6.91-1.29-13.57,0.41-19.45c1.28-4.41,2.48-8.57,1.63-12.55c-1.09-5.08-4.68-16.7-16.51-37.47
							c-1.77-3.1-4.86-3.8-7.17-3.41c-2.29,0.39-4.97,2.04-5.63,5.53l-13.97,74.88c-0.17,0.92-0.9,1.63-1.81,1.79
							c-0.91,0.16-1.84-0.27-2.31-1.08c-2.46-4.24-10.39-15.12-17.79-14.57c-4.57,0.35-8.66,5.09-12.15,14.08
							c-4.29,11.05-1.28,21.64,1.13,30.15c0.39,1.36,0.76,2.66,1.07,3.9c11.29,43.51-9.36,88.33-49.09,106.56
							C590.65,1523.87,571.47,1527.16,564.89,1528.06z"/>
					</g>
					<path d="M503.27,1267.14c0,0-67.33-32.14-116.3,13.77c-48.97,45.91-96.41,146.91-22.95,257.09
						c46.16,69.24,63.92,123.98,70.74,155.1c2.29,10.42,15.94,13.03,21.85,4.15c29.56-44.38,83.49-142.26,57.38-234.24
						C478.79,1339.06,503.27,1267.14,503.27,1267.14z"/>
					<path d="M750.16,1399.45c-0.76,0-1.5-0.39-1.91-1.08c-0.63-1.06-0.29-2.43,0.76-3.06c22.1-13.26,7.78-50.73,3.81-59.99
						l-62.52,31.92c-1.1,0.56-2.44,0.12-3-0.97c-0.56-1.1-0.13-2.44,0.97-3l64.61-32.99c0.53-0.27,1.16-0.32,1.73-0.13
						c0.57,0.19,1.04,0.6,1.3,1.14c0.99,2.06,24.02,50.66-4.6,67.83C750.95,1399.34,750.55,1399.45,750.16,1399.45z"/>
					<path d="M751.95,1425.08c-0.57,0-1.15-0.22-1.58-0.66c-0.87-0.87-0.86-2.29,0.01-3.15l8.81-8.74c2.68-2.66,3.03-6.82,0.83-9.89
						l-6.06-8.46c-0.72-1-0.49-2.39,0.51-3.11c1-0.72,2.39-0.49,3.11,0.51l6.06,8.46c3.48,4.86,2.93,11.45-1.32,15.66l-8.81,8.74
						C753.08,1424.86,752.51,1425.08,751.95,1425.08z"/>
					<path d="M681.04,1432.75c-1.44,0-2.96-0.16-4.56-0.56c-7.63-1.89-14.17-8.42-19.46-19.38c-0.53-1.11-0.07-2.44,1.04-2.98
						c1.11-0.53,2.44-0.07,2.98,1.04c4.67,9.68,10.21,15.4,16.46,16.98c6.72,1.7,12.13-2.13,12.18-2.17c1-0.72,2.39-0.5,3.11,0.49
						c0.72,0.99,0.51,2.38-0.48,3.11C692.08,1429.45,687.5,1432.75,681.04,1432.75z"/>
					<g>
						<path class="st0" d="M486.35,1261.07c0,0,62.57,18.84,36.95,78.85c0,0,28.9-20.85,28.17-53.42s-24.88-43.17-40.98-42.81
							C494.4,1244.06,486.35,1261.07,486.35,1261.07z"/>
						<path d="M523.3,1342.15c-0.49,0-0.99-0.16-1.39-0.49c-0.78-0.63-1.05-1.7-0.66-2.62c7.28-17.06,7.91-32.28,1.86-45.23
							c-10.36-22.2-37.14-30.53-37.41-30.61c-0.62-0.19-1.13-0.64-1.39-1.23c-0.26-0.59-0.26-1.27,0.02-1.86
							c0.35-0.74,8.84-18.26,26.11-18.65c9.95-0.22,20.04,3.26,27.72,9.56c6.85,5.62,15.11,16.33,15.54,35.43
							c0.75,33.35-27.88,54.4-29.1,55.28C524.22,1342.01,523.76,1342.15,523.3,1342.15z M489.61,1259.83
							c7.37,2.76,28.18,12.06,37.54,32.06c5.59,11.96,6.03,25.55,1.33,40.51c8.21-8.13,21.26-24.47,20.78-45.86
							c-0.31-13.77-5.12-24.87-13.91-32.08c-6.77-5.55-16.07-8.71-24.79-8.55C499.39,1246.17,492.31,1255.49,489.61,1259.83z"/>
					</g>
				</g>
			</g>
			<g>
				<path d="M367.04,1774.02c51.63,31.21,156.65,75.7,325.66,65.38c12.43-0.76,23.92,6.61,28.3,18.26l10.54,42.2
					c18.54,74.19,53.4,143.31,102.04,202.32l25.25,30.63c3.89,4.71,0.23,11.79-5.87,11.34l-111.43-8.19
					c-191.27-25.3-339.88-121.24-387.54-296l-12.71-46.61C337.17,1778.23,353.62,1765.91,367.04,1774.02z"/>
			</g>
		</g>
		<g>
			<g>
				<path class="st0" d="M1418.31,585.24h366.93c20.77,0,36.66,16.9,36.66,37.68v106.19c0,20.77-15.89,37.56-36.66,37.56
					c-0.19,0-5.78,0-13.27,0v70.91l-48.28-70.91c-70.18,0-305.38,0-305.38,0c-20.77,0-38.57-16.78-38.57-37.56V622.92
					C1379.74,602.14,1397.53,585.24,1418.31,585.24z"/>
				<path d="M1771.96,839.81c-0.72,0-1.42-0.35-1.84-0.97l-47.62-69.94h-304.2c-22.11,0-40.8-18.22-40.8-39.79V622.92
					c0-21.63,18.68-39.91,40.8-39.91h366.93c21.81,0,38.89,17.53,38.89,39.91v106.19c0,22.31-17.08,39.79-38.89,39.79h-11.04v68.68
					c0,0.98-0.64,1.84-1.57,2.13C1772.4,839.77,1772.18,839.81,1771.96,839.81z M1418.3,587.47c-19.7,0-36.34,16.23-36.34,35.45
					v106.19c0,19.15,16.64,35.32,36.34,35.32h305.38c0.74,0,1.43,0.36,1.84,0.97l44.21,64.93v-63.67c0-1.23,1-2.23,2.23-2.23h13.27
					c19.31,0,34.43-15.52,34.43-35.32V622.92c0-19.88-15.13-35.45-34.43-35.45H1418.3z"/>
			</g>
			<g>
				<path d="M1556.09,702.27c-0.31,0-0.62-0.06-0.92-0.2l-50.54-22.92c-0.8-0.36-1.31-1.15-1.31-2.03c0-0.87,0.51-1.67,1.3-2.03
					l50.54-23.06c1.12-0.52,2.44-0.02,2.96,1.1c0.51,1.12,0.02,2.44-1.1,2.95l-46.08,21.03l46.07,20.9
					c1.12,0.51,1.62,1.83,1.11,2.95C1557.75,701.79,1556.94,702.27,1556.09,702.27z"/>
				<path d="M1628.48,702.27c-0.85,0-1.66-0.49-2.03-1.31c-0.51-1.12-0.01-2.44,1.11-2.95l46.07-20.9l-46.08-21.03
					c-1.12-0.51-1.61-1.83-1.1-2.95c0.51-1.12,1.83-1.61,2.96-1.1l50.54,23.06c0.79,0.36,1.3,1.16,1.3,2.03
					c0,0.87-0.51,1.67-1.31,2.03l-50.54,22.92C1629.1,702.21,1628.79,702.27,1628.48,702.27z"/>
				<path d="M1571.27,729.18c-0.27,0-0.53-0.05-0.8-0.15c-1.15-0.44-1.72-1.73-1.28-2.88l39.34-102.92
					c0.44-1.15,1.73-1.72,2.88-1.29c1.15,0.44,1.72,1.73,1.29,2.88l-39.34,102.92C1573.02,728.63,1572.17,729.18,1571.27,729.18z"/>
			</g>
		</g>
		<g>
			<g>
				<path d="M1499.08,1970.49c-0.86,0-1.67-0.49-2.04-1.33c-0.5-1.13,0.01-2.44,1.13-2.94c115.08-50.97,219.46-133.57,301.85-238.86
					c0.75-0.97,2.16-1.14,3.13-0.38c0.97,0.76,1.14,2.16,0.38,3.13c-82.84,105.86-187.8,188.92-303.55,240.19
					C1499.69,1970.43,1499.38,1970.49,1499.08,1970.49z"/>
				<path d="M1488.04,2029.27c-0.89,0-1.74-0.54-2.08-1.42c-0.44-1.15,0.12-2.44,1.27-2.89c110.71-42.95,209.9-111.05,294.82-202.4
					c0.84-0.9,2.25-0.95,3.15-0.12c0.9,0.84,0.95,2.25,0.12,3.15c-85.38,91.85-185.12,160.33-296.47,203.52
					C1488.58,2029.22,1488.31,2029.27,1488.04,2029.27z"/>
			</g>
			<g>
				<path d="M1000.22,410.55c-1.01,0-1.93-0.7-2.17-1.73c-0.28-1.2,0.47-2.4,1.67-2.67c115.23-26.57,229.37-28.35,339.26-5.3
					c1.21,0.25,1.98,1.44,1.72,2.64c-0.25,1.21-1.44,1.97-2.64,1.72c-109.26-22.92-222.76-21.14-337.35,5.28
					C1000.56,410.53,1000.39,410.55,1000.22,410.55z"/>
				<path d="M1381.82,363.99c-0.19,0-0.37-0.02-0.56-0.07c-94.16-24.41-192.71-30.59-292.92-18.34c-1.22,0.14-2.33-0.72-2.48-1.94
					c-0.15-1.22,0.72-2.33,1.94-2.48c100.77-12.31,199.87-6.1,294.58,18.46c1.19,0.31,1.91,1.53,1.6,2.72
					C1383.72,363.32,1382.81,363.99,1381.82,363.99z"/>
			</g>
			<ellipse cx="1445.02" cy="1975.28" rx="14.92" ry="14.91"/>
			<g>
				<path d="M407.02,1104.08c-0.56,0-1.11-0.21-1.54-0.62c-0.89-0.85-0.92-2.26-0.07-3.15l8.21-8.57c0.85-0.89,2.27-0.92,3.15-0.07
					c0.89,0.85,0.92,2.26,0.07,3.15l-8.21,8.57C408.2,1103.85,407.61,1104.08,407.02,1104.08z"/>
				<path d="M378.3,1134.06c-0.56,0-1.11-0.21-1.54-0.62c-0.89-0.85-0.92-2.26-0.07-3.15l8.21-8.57c0.85-0.89,2.27-0.92,3.15-0.07
					c0.89,0.85,0.92,2.26,0.07,3.15l-8.21,8.57C379.48,1133.83,378.89,1134.06,378.3,1134.06z"/>
				<path d="M386.35,1104.54c-0.57,0-1.13-0.21-1.56-0.64l-8.33-8.2c-0.88-0.86-0.89-2.28-0.03-3.15c0.86-0.88,2.28-0.89,3.15-0.03
					l8.33,8.2c0.88,0.86,0.89,2.28,0.02,3.15C387.51,1104.31,386.93,1104.54,386.35,1104.54z"/>
				<path d="M415.51,1133.23c-0.57,0-1.13-0.21-1.56-0.64l-8.33-8.2c-0.88-0.86-0.89-2.28-0.02-3.15c0.86-0.88,2.28-0.89,3.15-0.03
					l8.33,8.2c0.88,0.86,0.89,2.28,0.02,3.15C416.66,1133.01,416.09,1133.23,415.51,1133.23z"/>
			</g>
			<path d="M1427.04,405.24c-2.67,0-5.34-0.5-7.91-1.5c-5.59-2.17-9.99-6.44-12.39-12.01c-4.91-11.38,0.18-24.71,11.35-29.73
				c5.38-2.42,11.36-2.57,16.85-0.44c5.58,2.17,9.99,6.44,12.39,12.01c4.91,11.38-0.18,24.71-11.35,29.73
				C1433.12,404.6,1430.08,405.24,1427.04,405.24z M1427.03,364.54c-2.42,0-4.84,0.51-7.11,1.54c-8.96,4.02-13.03,14.74-9.08,23.89
				c1.93,4.47,5.45,7.88,9.91,9.62c4.36,1.7,9.13,1.57,13.4-0.35c8.96-4.02,13.03-14.74,9.08-23.89c-1.93-4.47-5.45-7.88-9.91-9.62
				C1431.28,364.94,1429.15,364.54,1427.03,364.54z M1419,364.05h0.02H1419z"/>
		</g>
	</g>
</g>
</svg>
