<svg xmlns="http://www.w3.org/2000/svg" xmlns:xlink="http://www.w3.org/1999/xlink" version="1.1" id="Layer_1" x="0px" y="0px" viewBox="0 0 1080 1080" style="enable-background:new 0 0 1080 1080;" xml:space="preserve">
<style type="text/css">
	.st0{fill:#050505;}
</style>
<path d="M5385.25,75.01c24.89-0.5,38.29,20.56,29.59,43.24c-13.22,34.46-27.3,68.6-41.02,102.87  c-110.16,275.14-220.32,550.27-330.48,825.41c-0.39,0.97-0.74,1.95-1.09,2.93c-5.1,14.18-13.27,25.28-29.83,25.54  c-15.69,0.25-23.92-9.88-30.2-23.04c-20.38-42.72-41.21-85.23-61.88-127.8c-36.36-74.87-72.53-149.83-109.43-224.43  c-3.57-7.22-10.61-14.36-17.82-17.89c-114.49-56.05-229.28-111.51-344-167.1c-4.22-2.04-8.48-3.99-12.65-6.12  c-11.52-5.85-19.17-14.66-18.94-28.11c0.25-14.14,8.43-22.92,21.16-28.02c46.35-18.57,92.66-37.24,139.03-55.76  c263.73-105.38,527.47-210.74,791.23-316.06C5375.15,78.16,5381.62,76.25,5385.25,75.01z M4520.14,483.08  c6.76,3.59,11.1,6.07,15.58,8.24c90.31,43.81,180.75,87.35,270.81,131.68c11.34,5.58,17.6,4.43,26.46-4.46  c138.91-139.45,278.22-278.5,417.42-417.66c3.68-3.68,7.09-7.62,10.63-11.45c-0.55-0.64-1.1-1.28-1.65-1.92  C5013.88,285.67,4768.39,383.83,4520.14,483.08z M5307.14,229.34c-5.07,3.86-6.43,4.67-7.51,5.75  c-142.94,142.79-285.78,285.67-428.98,428.19c-7.49,7.45-5.64,12.8-1.98,20.31c44.85,92.08,89.53,184.25,134.31,276.36  c1.7,3.49,4,6.7,7.05,11.74C5109.1,724.15,5207.32,478.75,5307.14,229.34z"/>
<path d="M3240.25,75.01c24.89-0.5,38.29,20.56,29.59,43.24c-13.22,34.46-27.3,68.6-41.02,102.87  c-110.16,275.14-220.32,550.27-330.48,825.41c-0.39,0.97-0.74,1.95-1.09,2.93c-5.1,14.18-13.27,25.28-29.83,25.54  c-15.69,0.25-23.92-9.88-30.2-23.04c-20.38-42.72-41.21-85.23-61.88-127.8c-36.36-74.87-72.53-149.83-109.43-224.43  c-3.57-7.22-10.61-14.36-17.82-17.89c-114.49-56.05-229.28-111.51-344-167.1c-4.22-2.04-8.48-3.99-12.65-6.12  c-11.52-5.85-19.17-14.66-18.94-28.11c0.25-14.14,8.43-22.92,21.16-28.02c46.35-18.57,92.66-37.24,139.03-55.76  c263.73-105.38,527.47-210.74,791.23-316.06C3230.15,78.16,3236.62,76.25,3240.25,75.01z M2375.14,483.08  c6.76,3.59,11.1,6.07,15.58,8.24c90.31,43.81,180.75,87.35,270.81,131.68c11.34,5.58,17.6,4.43,26.46-4.46  c138.9-139.45,278.22-278.5,417.42-417.66c3.68-3.68,7.09-7.62,10.63-11.45c-0.55-0.64-1.1-1.28-1.65-1.92  C2868.88,285.67,2623.39,383.83,2375.14,483.08z M3162.14,229.34c-5.07,3.86-6.43,4.67-7.51,5.75  c-142.94,142.79-285.78,285.67-428.98,428.19c-7.49,7.45-5.64,12.8-1.98,20.31c44.85,92.08,89.53,184.25,134.31,276.36  c1.7,3.49,4,6.7,7.05,11.74C2964.1,724.15,3062.32,478.75,3162.14,229.34z"/>
<path d="M-901.75,34.01c24.88-0.5,38.29,20.56,29.59,43.24c-13.22,34.46-27.3,68.6-41.02,102.87  c-110.16,275.14-220.32,550.27-330.48,825.41c-0.39,0.97-0.74,1.95-1.09,2.93c-5.1,14.18-13.27,25.28-29.83,25.54  c-15.69,0.25-23.92-9.88-30.2-23.04c-20.38-42.72-41.21-85.23-61.88-127.8c-36.36-74.87-72.53-149.83-109.43-224.43  c-3.57-7.22-10.61-14.36-17.82-17.89c-114.49-56.05-229.28-111.51-344-167.1c-4.22-2.04-8.48-3.99-12.65-6.12  c-11.52-5.85-19.17-14.66-18.94-28.11c0.25-14.14,8.43-22.92,21.16-28.02c46.35-18.57,92.66-37.24,139.03-55.76  c263.73-105.38,527.47-210.74,791.23-316.06C-911.85,37.16-905.38,35.25-901.75,34.01z M-1766.86,442.08  c6.76,3.59,11.1,6.07,15.58,8.24c90.31,43.81,180.75,87.35,270.81,131.68c11.34,5.58,17.6,4.43,26.46-4.46  c138.9-139.45,278.22-278.5,417.42-417.66c3.68-3.68,7.09-7.62,10.63-11.45c-0.55-0.64-1.1-1.28-1.65-1.92  C-1273.12,244.67-1518.61,342.83-1766.86,442.08z M-979.86,188.34c-5.07,3.86-6.43,4.67-7.51,5.75  c-142.94,142.79-285.78,285.67-428.98,428.19c-7.49,7.45-5.64,12.8-1.98,20.31c44.85,92.08,89.53,184.25,134.31,276.36  c1.7,3.49,4,6.7,7.05,11.74C-1177.9,683.15-1079.68,437.75-979.86,188.34z"/>
<g>
	<path class="st0" d="M1007.19,1075.16c-0.44,0-0.88,0-1.31,0c-115.27-0.85-232.55-0.74-345.97-0.62   c-39.62,0.04-79.25,0.08-118.87,0.08v-35.5v35.5l-123.31,0.01c-110.94,0.01-225.66,0.02-338.49-0.04   c-20.39-0.01-45.76-0.02-62.22-19.22c-16.37-19.1-12.58-43.72-9.54-63.5c8.21-53.31,24.62-103.14,48.77-148.1   c23.84-44.37,54.8-83.27,92.03-115.61c37.29-32.39,80.13-57.56,127.32-74.81c47.95-17.52,99.6-26.54,153.51-26.82   c14.6-0.08,29.5-0.2,43.91-0.33c80.23-0.69,163.2-1.4,244.91,6.28c89.81,8.44,175.99,51.34,242.67,120.8   c65.7,68.43,106.41,156.03,114.64,246.67c1.43,15.72,1.47,38.64-14.53,56.03C1045.11,1072.94,1022.98,1075.16,1007.19,1075.16z    M778.25,1003.45c75.08,0,150.96,0.14,226.07,0.69c-15.17-154.93-143.47-286.91-293.04-300.97c-78.09-7.34-159.2-6.65-237.65-5.97   c-14.46,0.12-29.42,0.25-44.15,0.33c-185.34,0.96-323.44,120.74-351.83,305.14c-0.05,0.31-0.09,0.61-0.14,0.91   c0.57,0,1.15,0,1.76,0c112.81,0.06,227.52,0.05,338.45,0.04l123.32-0.01c39.6,0,79.2-0.04,118.8-0.08   C698.93,1003.49,738.48,1003.45,778.25,1003.45z"/>
	<path class="st0" d="M540.39,576.56c-157.68,0-286.26-127.92-286.87-285.66c-0.15-38.29,7.33-75.57,22.23-110.81   c14.34-33.93,34.91-64.49,61.12-90.83c26.43-26.57,57.23-47.46,91.54-62.11c35.6-15.2,73.33-22.93,112.14-22.97   c0.1,0,0.22,0,0.32,0c76.72,0,148.73,29.57,202.82,83.29c54.18,53.82,84.16,125.69,84.4,202.39   c0.24,76.38-29.47,148.27-83.67,202.42c-54.12,54.08-126.22,84.02-203,84.29l-0.13-35.5l0.13,35.5   C541.1,576.56,540.73,576.56,540.39,576.56z M540.87,75.16c-0.08,0-0.16,0-0.24,0c-57.83,0.06-112.32,22.85-153.43,64.16   c-40.64,40.84-62.9,94.57-62.68,151.29c0.46,118.68,97.23,214.94,215.88,214.94c0.26,0,0.52,0,0.78,0   c119.44-0.43,216.3-97.09,215.92-215.49C756.72,171.52,659.75,75.16,540.87,75.16z"/>
</g>
</svg>